# xmcd
#
# Track frame offsets:
#	150
#	16556
#	25272
#	41012
#	53463
#	77159
#	88478
#	106983
#	119333
#	131030
#	154607
#	171405
#
# Disc length: 2496 seconds
#
# Revision: 0
# Processed by: cddbd v1.5.2PL0 Copyright (c) Steve Scherf et al.
# Submitted via: audiograbber 1.83.01
#
DISCID=9209be0c
DTITLE=The Tweed Twangers - Off Your Rocker
DYEAR=2006
DGENRE=Country
TTITLE0=Who Moved the Outhouse
TTITLE1=Don't Look Now
TTITLE2=Ole' Tweed Town
TTITLE3=I Just Don't Look Good
TTITLE4=Internet Widower
TTITLE5=How Can I Miss You
TTITLE6=No Pork on Your Fork
TTITLE7=Drivin My Wife
TTITLE8=Cook Stove Blues
TTITLE9=Piddlin' Pete
TTITLE10=Scared of Cows
TTITLE11=John Wayne's Bobbit
EXTD=
EXTT0=
EXTT1=
EXTT2=
EXTT3=
EXTT4=
EXTT5=
EXTT6=
EXTT7=
EXTT8=
EXTT9=
EXTT10=
EXTT11=
PLAYORDER=
